<?xml version="1.0" standalone="no"?><!DOCTYPE svg PUBLIC "-//W3C//DTD SVG 1.1//EN" "http://www.w3.org/Graphics/SVG/1.1/DTD/svg11.dtd"><svg t="1618227942556" class="icon" viewBox="0 0 1024 1024" version="1.1" xmlns="http://www.w3.org/2000/svg" p-id="2062" xmlns:xlink="http://www.w3.org/1999/xlink" width="200" height="200"><defs><style type="text/css"></style></defs><path d="M761.69 984.53H262.31c-63.69 0-115.5-51.81-115.5-115.5V386.87h63v482.16c0 28.95 23.55 52.5 52.5 52.5h499.38c28.95 0 52.5-23.55 52.5-52.5V386.87h63v482.16c0 63.69-51.81 115.5-115.5 115.5z" p-id="2063" fill="#d81e06"></path><path d="M937.8 487.88c-7.54 0-15.1-2.69-21.13-8.15L512 113.46 107.33 479.73c-12.9 11.67-32.82 10.68-44.49-2.22-11.67-12.9-10.68-32.82 2.22-44.49L512 28.48l446.95 404.54c12.9 11.67 13.89 31.59 2.22 44.49-6.23 6.88-14.78 10.37-23.37 10.37zM646.61 984.53H377.39V656.3c0-74.34 60.39-134.82 134.61-134.82s134.61 60.48 134.61 134.82v328.23z m-206.22-63h143.22V656.3c0-39.6-32.12-71.82-71.61-71.82s-71.61 32.22-71.61 71.82v265.23z" p-id="2064" fill="#d81e06"></path></svg>